<svg width="18" height="22" viewBox="0 0 18 22" fill="none" xmlns="http://www.w3.org/2000/svg">
<path d="M15.2978 7.93336L14.4415 8.03054L15.2978 7.93336ZM15.7512 11.9279L16.6074 11.8307V11.8307L15.7512 11.9279ZM2.19279 11.9279L1.33654 11.8307L2.19279 11.9279ZM2.64616 7.93336L3.50242 8.03054L2.64616 7.93336ZM1.31533 13.9118L0.659129 13.3533H0.659129L1.31533 13.9118ZM16.6286 13.9118L15.9724 14.4704V14.4704L16.6286 13.9118ZM11.2733 3.26821H10.4116C10.4116 3.63656 10.6457 3.96418 10.9942 4.0835L11.2733 3.26821ZM6.67064 3.26821L6.94979 4.0835C7.29828 3.96418 7.53239 3.63656 7.53239 3.26821H6.67064ZM12.8204 19.413C12.9874 18.9674 12.7615 18.4707 12.3159 18.3037C11.8702 18.1366 11.3735 18.3625 11.2065 18.8082L12.8204 19.413ZM6.73744 18.8082C6.57041 18.3625 6.07373 18.1366 5.62807 18.3037C5.18241 18.4707 4.95653 18.9674 5.12355 19.413L6.73744 18.8082ZM14.829 16.2212H3.11491V17.9447H14.829V16.2212ZM14.4415 8.03054L14.8949 12.0251L16.6074 11.8307L16.154 7.83618L14.4415 8.03054ZM3.04905 12.0251L3.50242 8.03054L1.78991 7.83618L1.33654 11.8307L3.04905 12.0251ZM1.97154 14.4704C2.56923 13.7683 2.94709 12.9234 3.04905 12.0251L1.33654 11.8307C1.27519 12.3713 1.04618 12.8986 0.659129 13.3533L1.97154 14.4704ZM14.8949 12.0251C14.9969 12.9234 15.3747 13.7683 15.9724 14.4704L17.2848 13.3533C16.8978 12.8986 16.6688 12.3713 16.6074 11.8307L14.8949 12.0251ZM3.11491 16.2212C2.48584 16.2212 2.05051 15.9111 1.8524 15.562C1.6628 15.2279 1.6645 14.8311 1.97154 14.4704L0.659129 13.3533C-0.146025 14.2991 -0.171376 15.4879 0.353443 16.4127C0.869757 17.3225 1.89031 17.9447 3.11491 17.9447V16.2212ZM14.829 17.9447C16.0536 17.9447 17.0742 17.3225 17.5905 16.4127C18.1153 15.4879 18.09 14.2991 17.2848 13.3533L15.9724 14.4704C16.2795 14.8311 16.2811 15.2279 16.0915 15.562C15.8934 15.9111 15.4581 16.2212 14.829 16.2212V17.9447ZM12.1351 3.26821V3.16306H10.4116V3.26821H12.1351ZM16.154 7.83618C15.8658 5.29642 13.9833 3.28522 11.5525 2.45292L10.9942 4.0835C12.9073 4.73855 14.2409 6.26244 14.4415 8.03054L16.154 7.83618ZM7.53239 3.26821V3.16306H5.80889V3.26821H7.53239ZM3.50242 8.03054C3.70309 6.26244 5.0366 4.73855 6.94979 4.0835L6.3915 2.45292C3.96064 3.28522 2.07816 5.29642 1.78991 7.83618L3.50242 8.03054ZM8.97198 1.72348C9.76703 1.72348 10.4116 2.368 10.4116 3.16306H12.1351C12.1351 1.41614 10.7189 -2.47758e-05 8.97198 -2.47758e-05V1.72348ZM8.97198 -2.47758e-05C7.22505 -2.47758e-05 5.80889 1.41614 5.80889 3.16306H7.53239C7.53239 2.368 8.17692 1.72348 8.97198 1.72348V-2.47758e-05ZM11.2065 18.8082C10.8947 19.6401 10.0309 20.2765 8.97197 20.2765V22C10.7214 22 12.2467 20.9438 12.8204 19.413L11.2065 18.8082ZM8.97197 20.2765C7.91301 20.2765 7.04921 19.6401 6.73744 18.8082L5.12355 19.413C5.69722 20.9438 7.22258 22 8.97197 22V20.2765Z" fill="white"/>
</svg>
