<svg width="24" height="24" viewBox="0 0 24 24" fill="none" xmlns="http://www.w3.org/2000/svg">
<path fill-rule="evenodd" clip-rule="evenodd" d="M9.9998 2.69999C9.65502 2.69999 9.32436 2.83695 9.08057 3.08075C8.83677 3.32455 8.6998 3.65521 8.6998 3.99999V5.29999H15.2998V3.99999C15.2998 3.65521 15.1628 3.32455 14.919 3.08075C14.6752 2.83695 14.3446 2.69999 13.9998 2.69999H9.9998ZM16.6998 5.29999V3.99999C16.6998 3.2839 16.4153 2.59715 15.909 2.0908C15.4026 1.58445 14.7159 1.29999 13.9998 1.29999H9.9998C9.28372 1.29999 8.59696 1.58445 8.09062 2.0908C7.58427 2.59715 7.2998 3.2839 7.2998 3.99999V5.29999H2.9998C2.61321 5.29999 2.2998 5.61339 2.2998 5.99999C2.2998 6.38659 2.61321 6.69999 2.9998 6.69999H4.2998V20C4.2998 20.7161 4.58427 21.4028 5.09062 21.9092C5.59696 22.4155 6.28372 22.7 6.9998 22.7H16.9998C17.7159 22.7 18.4026 22.4155 18.909 21.9092C19.4153 21.4028 19.6998 20.7161 19.6998 20V6.69999H20.9998C21.3864 6.69999 21.6998 6.38659 21.6998 5.99999C21.6998 5.61339 21.3864 5.29999 20.9998 5.29999H16.6998ZM5.6998 6.69999V20C5.6998 20.3448 5.83677 20.6754 6.08057 20.9192C6.32436 21.163 6.65502 21.3 6.9998 21.3H16.9998C17.3446 21.3 17.6752 21.163 17.919 20.9192C18.1628 20.6754 18.2998 20.3448 18.2998 20V6.69999H5.6998ZM9.9998 10.3C10.3864 10.3 10.6998 10.6134 10.6998 11V17C10.6998 17.3866 10.3864 17.7 9.9998 17.7C9.6132 17.7 9.2998 17.3866 9.2998 17V11C9.2998 10.6134 9.6132 10.3 9.9998 10.3ZM13.9998 10.3C14.3864 10.3 14.6998 10.6134 14.6998 11V17C14.6998 17.3866 14.3864 17.7 13.9998 17.7C13.6132 17.7 13.2998 17.3866 13.2998 17V11C13.2998 10.6134 13.6132 10.3 13.9998 10.3Z" fill="#2B2B2B"/>
</svg>
